<mxfile host="Electron" modified="2024-09-20T13:51:48.688Z" agent="Mozilla/5.0 (Windows NT 10.0; Win64; x64) AppleWebKit/537.36 (KHTML, like Gecko) draw.io/22.0.3 Chrome/114.0.5735.289 Electron/25.8.4 Safari/537.36" etag="YMxNf3XkZS4sG-rBhbpp" version="22.0.3" type="device">
  <diagram name="Page 1" id="Page-1">
    <mxGraphModel dx="1404" dy="546" grid="1" gridSize="10" guides="1" tooltips="1" connect="1" arrows="1" fold="1" page="1" pageScale="1" pageWidth="889" pageHeight="380" math="0" shadow="0">
      <root>
        <mxCell id="0" />
        <mxCell id="1" parent="0" />
        <mxCell id="P6nvroZMQSLAxfdBalFb-244" value="" style="rounded=0;whiteSpace=wrap;html=1;fillColor=none;dashed=1;dashPattern=8 8;" vertex="1" parent="1">
          <mxGeometry x="20" y="390" width="850" height="360" as="geometry" />
        </mxCell>
        <mxCell id="P6nvroZMQSLAxfdBalFb-245" value="NUL&lt;br&gt;\0" style="rounded=0;whiteSpace=wrap;html=1;points=[];fillColor=#C3ABD0;fillOpacity=20;" vertex="1" parent="1">
          <mxGeometry x="70" y="430" width="50" height="40" as="geometry" />
        </mxCell>
        <mxCell id="P6nvroZMQSLAxfdBalFb-246" value="SOM" style="rounded=0;whiteSpace=wrap;html=1;points=[];fillColor=#C3ABD0;fillOpacity=20;" vertex="1" parent="1">
          <mxGeometry x="120" y="430" width="50" height="40" as="geometry" />
        </mxCell>
        <mxCell id="P6nvroZMQSLAxfdBalFb-247" value="EOA" style="rounded=0;whiteSpace=wrap;html=1;points=[];fillColor=#C3ABD0;fillOpacity=20;" vertex="1" parent="1">
          <mxGeometry x="170" y="430" width="50" height="40" as="geometry" />
        </mxCell>
        <mxCell id="P6nvroZMQSLAxfdBalFb-248" value="EOM" style="rounded=0;whiteSpace=wrap;html=1;points=[];fillColor=#C3ABD0;fillOpacity=20;" vertex="1" parent="1">
          <mxGeometry x="220" y="430" width="50" height="40" as="geometry" />
        </mxCell>
        <mxCell id="P6nvroZMQSLAxfdBalFb-249" value="EOT" style="rounded=0;whiteSpace=wrap;html=1;points=[];fillColor=#C3ABD0;fillOpacity=20;" vertex="1" parent="1">
          <mxGeometry x="270" y="430" width="50" height="40" as="geometry" />
        </mxCell>
        <mxCell id="P6nvroZMQSLAxfdBalFb-250" value="WRU" style="rounded=0;whiteSpace=wrap;html=1;points=[];fillColor=#C3ABD0;fillOpacity=20;" vertex="1" parent="1">
          <mxGeometry x="320" y="430" width="50" height="40" as="geometry" />
        </mxCell>
        <mxCell id="P6nvroZMQSLAxfdBalFb-251" value="RU" style="rounded=0;whiteSpace=wrap;html=1;points=[];fillColor=#C3ABD0;fillOpacity=20;" vertex="1" parent="1">
          <mxGeometry x="370" y="430" width="50" height="40" as="geometry" />
        </mxCell>
        <mxCell id="P6nvroZMQSLAxfdBalFb-252" value="BEL&lt;br&gt;\a" style="rounded=0;whiteSpace=wrap;html=1;points=[];fillColor=#C3ABD0;fillOpacity=20;" vertex="1" parent="1">
          <mxGeometry x="420" y="430" width="50" height="40" as="geometry" />
        </mxCell>
        <mxCell id="P6nvroZMQSLAxfdBalFb-253" value="FEO" style="rounded=0;whiteSpace=wrap;html=1;points=[];fillColor=#C3ABD0;fillOpacity=20;" vertex="1" parent="1">
          <mxGeometry x="470" y="430" width="50" height="40" as="geometry" />
        </mxCell>
        <mxCell id="P6nvroZMQSLAxfdBalFb-254" value="HT&lt;br&gt;\t" style="rounded=0;whiteSpace=wrap;html=1;points=[];fillColor=#C3ABD0;fillOpacity=20;" vertex="1" parent="1">
          <mxGeometry x="520" y="430" width="50" height="40" as="geometry" />
        </mxCell>
        <mxCell id="P6nvroZMQSLAxfdBalFb-255" value="LF&lt;br&gt;\n" style="rounded=0;whiteSpace=wrap;html=1;points=[];fillColor=#C3ABD0;fillOpacity=20;" vertex="1" parent="1">
          <mxGeometry x="570" y="430" width="50" height="40" as="geometry" />
        </mxCell>
        <mxCell id="P6nvroZMQSLAxfdBalFb-256" value="VT&lt;br&gt;\v" style="rounded=0;whiteSpace=wrap;html=1;points=[];fillColor=#C3ABD0;fillOpacity=20;" vertex="1" parent="1">
          <mxGeometry x="620" y="430" width="50" height="40" as="geometry" />
        </mxCell>
        <mxCell id="P6nvroZMQSLAxfdBalFb-257" value="FF&lt;br&gt;\f" style="rounded=0;whiteSpace=wrap;html=1;points=[];fillColor=#C3ABD0;fillOpacity=20;" vertex="1" parent="1">
          <mxGeometry x="670" y="430" width="50" height="40" as="geometry" />
        </mxCell>
        <mxCell id="P6nvroZMQSLAxfdBalFb-258" value="CR&lt;br&gt;\r" style="rounded=0;whiteSpace=wrap;html=1;points=[];fillColor=#C3ABD0;fillOpacity=20;" vertex="1" parent="1">
          <mxGeometry x="720" y="430" width="50" height="40" as="geometry" />
        </mxCell>
        <mxCell id="P6nvroZMQSLAxfdBalFb-259" value="SO" style="rounded=0;whiteSpace=wrap;html=1;points=[];fillColor=#C3ABD0;fillOpacity=20;" vertex="1" parent="1">
          <mxGeometry x="770" y="430" width="50" height="40" as="geometry" />
        </mxCell>
        <mxCell id="P6nvroZMQSLAxfdBalFb-260" value="SI" style="rounded=0;whiteSpace=wrap;html=1;points=[];fillColor=#C3ABD0;fillOpacity=20;" vertex="1" parent="1">
          <mxGeometry x="820" y="430" width="50" height="40" as="geometry" />
        </mxCell>
        <mxCell id="P6nvroZMQSLAxfdBalFb-261" value="DLE" style="rounded=0;whiteSpace=wrap;html=1;points=[];fillColor=#C3ABD0;fillOpacity=20;" vertex="1" parent="1">
          <mxGeometry x="70" y="470" width="50" height="40" as="geometry" />
        </mxCell>
        <mxCell id="P6nvroZMQSLAxfdBalFb-262" value="DC1" style="rounded=0;whiteSpace=wrap;html=1;points=[];fillColor=#C3ABD0;fillOpacity=20;" vertex="1" parent="1">
          <mxGeometry x="120" y="470" width="50" height="40" as="geometry" />
        </mxCell>
        <mxCell id="P6nvroZMQSLAxfdBalFb-263" value="DC2" style="rounded=0;whiteSpace=wrap;html=1;points=[];fillColor=#C3ABD0;fillOpacity=20;" vertex="1" parent="1">
          <mxGeometry x="170" y="470" width="50" height="40" as="geometry" />
        </mxCell>
        <mxCell id="P6nvroZMQSLAxfdBalFb-264" value="DC3" style="rounded=0;whiteSpace=wrap;html=1;points=[];fillColor=#C3ABD0;fillOpacity=20;" vertex="1" parent="1">
          <mxGeometry x="220" y="470" width="50" height="40" as="geometry" />
        </mxCell>
        <mxCell id="P6nvroZMQSLAxfdBalFb-265" value="DC4" style="rounded=0;whiteSpace=wrap;html=1;points=[];fillColor=#C3ABD0;fillOpacity=20;" vertex="1" parent="1">
          <mxGeometry x="270" y="470" width="50" height="40" as="geometry" />
        </mxCell>
        <mxCell id="P6nvroZMQSLAxfdBalFb-266" value="ERR" style="rounded=0;whiteSpace=wrap;html=1;points=[];fillColor=#C3ABD0;fillOpacity=20;" vertex="1" parent="1">
          <mxGeometry x="320" y="470" width="50" height="40" as="geometry" />
        </mxCell>
        <mxCell id="P6nvroZMQSLAxfdBalFb-267" value="SYN" style="rounded=0;whiteSpace=wrap;html=1;points=[];fillColor=#C3ABD0;fillOpacity=20;" vertex="1" parent="1">
          <mxGeometry x="370" y="470" width="50" height="40" as="geometry" />
        </mxCell>
        <mxCell id="P6nvroZMQSLAxfdBalFb-268" value="LEM" style="rounded=0;whiteSpace=wrap;html=1;points=[];fillColor=#C3ABD0;fillOpacity=20;" vertex="1" parent="1">
          <mxGeometry x="420" y="470" width="50" height="40" as="geometry" />
        </mxCell>
        <mxCell id="P6nvroZMQSLAxfdBalFb-269" value="S0" style="rounded=0;whiteSpace=wrap;html=1;points=[];fillColor=#C3ABD0;fillOpacity=20;" vertex="1" parent="1">
          <mxGeometry x="470" y="470" width="50" height="40" as="geometry" />
        </mxCell>
        <mxCell id="P6nvroZMQSLAxfdBalFb-270" value="S1" style="rounded=0;whiteSpace=wrap;html=1;points=[];fillColor=#C3ABD0;fillOpacity=20;" vertex="1" parent="1">
          <mxGeometry x="520" y="470" width="50" height="40" as="geometry" />
        </mxCell>
        <mxCell id="P6nvroZMQSLAxfdBalFb-271" value="S2" style="rounded=0;whiteSpace=wrap;html=1;points=[];fillColor=#C3ABD0;fillOpacity=20;" vertex="1" parent="1">
          <mxGeometry x="570" y="470" width="50" height="40" as="geometry" />
        </mxCell>
        <mxCell id="P6nvroZMQSLAxfdBalFb-272" value="S3" style="rounded=0;whiteSpace=wrap;html=1;points=[];fillColor=#C3ABD0;fillOpacity=20;" vertex="1" parent="1">
          <mxGeometry x="620" y="470" width="50" height="40" as="geometry" />
        </mxCell>
        <mxCell id="P6nvroZMQSLAxfdBalFb-273" value="S4" style="rounded=0;whiteSpace=wrap;html=1;points=[];fillColor=#C3ABD0;fillOpacity=20;" vertex="1" parent="1">
          <mxGeometry x="670" y="470" width="50" height="40" as="geometry" />
        </mxCell>
        <mxCell id="P6nvroZMQSLAxfdBalFb-274" value="S5" style="rounded=0;whiteSpace=wrap;html=1;points=[];fillColor=#C3ABD0;fillOpacity=20;" vertex="1" parent="1">
          <mxGeometry x="720" y="470" width="50" height="40" as="geometry" />
        </mxCell>
        <mxCell id="P6nvroZMQSLAxfdBalFb-275" value="S6" style="rounded=0;whiteSpace=wrap;html=1;points=[];fillColor=#C3ABD0;fillOpacity=20;" vertex="1" parent="1">
          <mxGeometry x="770" y="470" width="50" height="40" as="geometry" />
        </mxCell>
        <mxCell id="P6nvroZMQSLAxfdBalFb-276" value="S7" style="rounded=0;whiteSpace=wrap;html=1;points=[];fillColor=#C3ABD0;fillOpacity=20;" vertex="1" parent="1">
          <mxGeometry x="820" y="470" width="50" height="40" as="geometry" />
        </mxCell>
        <mxCell id="P6nvroZMQSLAxfdBalFb-277" value="&amp;nbsp;" style="rounded=0;whiteSpace=wrap;html=1;points=[];fillColor=#9AC7BF;fillOpacity=20;" vertex="1" parent="1">
          <mxGeometry x="70" y="510" width="50" height="40" as="geometry" />
        </mxCell>
        <mxCell id="P6nvroZMQSLAxfdBalFb-278" value="!" style="rounded=0;whiteSpace=wrap;html=1;points=[];fillColor=#9AC7BF;fillOpacity=20;" vertex="1" parent="1">
          <mxGeometry x="120" y="510" width="50" height="40" as="geometry" />
        </mxCell>
        <mxCell id="P6nvroZMQSLAxfdBalFb-279" value="&quot;" style="rounded=0;whiteSpace=wrap;html=1;points=[];fillColor=#9AC7BF;fillOpacity=20;" vertex="1" parent="1">
          <mxGeometry x="170" y="510" width="50" height="40" as="geometry" />
        </mxCell>
        <mxCell id="P6nvroZMQSLAxfdBalFb-280" value="#" style="rounded=0;whiteSpace=wrap;html=1;points=[];fillColor=#9AC7BF;fillOpacity=20;" vertex="1" parent="1">
          <mxGeometry x="220" y="510" width="50" height="40" as="geometry" />
        </mxCell>
        <mxCell id="P6nvroZMQSLAxfdBalFb-281" value="$" style="rounded=0;whiteSpace=wrap;html=1;points=[];fillColor=#9AC7BF;fillOpacity=20;" vertex="1" parent="1">
          <mxGeometry x="270" y="510" width="50" height="40" as="geometry" />
        </mxCell>
        <mxCell id="P6nvroZMQSLAxfdBalFb-282" value="%" style="rounded=0;whiteSpace=wrap;html=1;points=[];fillColor=#9AC7BF;fillOpacity=20;" vertex="1" parent="1">
          <mxGeometry x="320" y="510" width="50" height="40" as="geometry" />
        </mxCell>
        <mxCell id="P6nvroZMQSLAxfdBalFb-283" value="&amp;amp;" style="rounded=0;whiteSpace=wrap;html=1;points=[];fillColor=#9AC7BF;fillOpacity=20;" vertex="1" parent="1">
          <mxGeometry x="370" y="510" width="50" height="40" as="geometry" />
        </mxCell>
        <mxCell id="P6nvroZMQSLAxfdBalFb-284" value="′" style="rounded=0;whiteSpace=wrap;html=1;points=[];fillColor=#9AC7BF;fillOpacity=20;" vertex="1" parent="1">
          <mxGeometry x="420" y="510" width="50" height="40" as="geometry" />
        </mxCell>
        <mxCell id="P6nvroZMQSLAxfdBalFb-285" value="(" style="rounded=0;whiteSpace=wrap;html=1;points=[];fillColor=#9AC7BF;fillOpacity=20;" vertex="1" parent="1">
          <mxGeometry x="470" y="510" width="50" height="40" as="geometry" />
        </mxCell>
        <mxCell id="P6nvroZMQSLAxfdBalFb-286" value=")" style="rounded=0;whiteSpace=wrap;html=1;points=[];fillColor=#9AC7BF;fillOpacity=20;" vertex="1" parent="1">
          <mxGeometry x="520" y="510" width="50" height="40" as="geometry" />
        </mxCell>
        <mxCell id="P6nvroZMQSLAxfdBalFb-287" value="*" style="rounded=0;whiteSpace=wrap;html=1;points=[];fillColor=#9AC7BF;fillOpacity=20;" vertex="1" parent="1">
          <mxGeometry x="570" y="510" width="50" height="40" as="geometry" />
        </mxCell>
        <mxCell id="P6nvroZMQSLAxfdBalFb-288" value="+" style="rounded=0;whiteSpace=wrap;html=1;points=[];fillColor=#9AC7BF;fillOpacity=20;" vertex="1" parent="1">
          <mxGeometry x="620" y="510" width="50" height="40" as="geometry" />
        </mxCell>
        <mxCell id="P6nvroZMQSLAxfdBalFb-289" value="," style="rounded=0;whiteSpace=wrap;html=1;points=[];fillColor=#9AC7BF;fillOpacity=20;" vertex="1" parent="1">
          <mxGeometry x="670" y="510" width="50" height="40" as="geometry" />
        </mxCell>
        <mxCell id="P6nvroZMQSLAxfdBalFb-290" value="-" style="rounded=0;whiteSpace=wrap;html=1;points=[];fillColor=#9AC7BF;fillOpacity=20;" vertex="1" parent="1">
          <mxGeometry x="720" y="510" width="50" height="40" as="geometry" />
        </mxCell>
        <mxCell id="P6nvroZMQSLAxfdBalFb-291" value="." style="rounded=0;whiteSpace=wrap;html=1;points=[];fillColor=#9AC7BF;fillOpacity=20;" vertex="1" parent="1">
          <mxGeometry x="770" y="510" width="50" height="40" as="geometry" />
        </mxCell>
        <mxCell id="P6nvroZMQSLAxfdBalFb-292" value="/" style="rounded=0;whiteSpace=wrap;html=1;points=[];fillColor=#9AC7BF;fillOpacity=20;" vertex="1" parent="1">
          <mxGeometry x="820" y="510" width="50" height="40" as="geometry" />
        </mxCell>
        <mxCell id="P6nvroZMQSLAxfdBalFb-293" value="0" style="rounded=0;whiteSpace=wrap;html=1;points=[];fillColor=none;fillOpacity=20;" vertex="1" parent="1">
          <mxGeometry x="70" y="550" width="50" height="40" as="geometry" />
        </mxCell>
        <mxCell id="P6nvroZMQSLAxfdBalFb-294" value="1" style="rounded=0;whiteSpace=wrap;html=1;points=[];fillColor=none;fillOpacity=20;" vertex="1" parent="1">
          <mxGeometry x="120" y="550" width="50" height="40" as="geometry" />
        </mxCell>
        <mxCell id="P6nvroZMQSLAxfdBalFb-295" value="2" style="rounded=0;whiteSpace=wrap;html=1;points=[];fillColor=none;fillOpacity=20;" vertex="1" parent="1">
          <mxGeometry x="170" y="550" width="50" height="40" as="geometry" />
        </mxCell>
        <mxCell id="P6nvroZMQSLAxfdBalFb-296" value="3" style="rounded=0;whiteSpace=wrap;html=1;points=[];fillColor=none;fillOpacity=20;" vertex="1" parent="1">
          <mxGeometry x="220" y="550" width="50" height="40" as="geometry" />
        </mxCell>
        <mxCell id="P6nvroZMQSLAxfdBalFb-297" value="4" style="rounded=0;whiteSpace=wrap;html=1;points=[];fillColor=none;fillOpacity=20;" vertex="1" parent="1">
          <mxGeometry x="270" y="550" width="50" height="40" as="geometry" />
        </mxCell>
        <mxCell id="P6nvroZMQSLAxfdBalFb-298" value="5" style="rounded=0;whiteSpace=wrap;html=1;points=[];fillColor=none;fillOpacity=20;" vertex="1" parent="1">
          <mxGeometry x="320" y="550" width="50" height="40" as="geometry" />
        </mxCell>
        <mxCell id="P6nvroZMQSLAxfdBalFb-299" value="6" style="rounded=0;whiteSpace=wrap;html=1;points=[];fillColor=none;fillOpacity=20;" vertex="1" parent="1">
          <mxGeometry x="370" y="550" width="50" height="40" as="geometry" />
        </mxCell>
        <mxCell id="P6nvroZMQSLAxfdBalFb-300" value="7" style="rounded=0;whiteSpace=wrap;html=1;points=[];fillColor=none;fillOpacity=20;" vertex="1" parent="1">
          <mxGeometry x="420" y="550" width="50" height="40" as="geometry" />
        </mxCell>
        <mxCell id="P6nvroZMQSLAxfdBalFb-301" value="8" style="rounded=0;whiteSpace=wrap;html=1;points=[];fillColor=none;fillOpacity=20;" vertex="1" parent="1">
          <mxGeometry x="470" y="550" width="50" height="40" as="geometry" />
        </mxCell>
        <mxCell id="P6nvroZMQSLAxfdBalFb-302" value="9" style="rounded=0;whiteSpace=wrap;html=1;points=[];fillColor=none;fillOpacity=20;" vertex="1" parent="1">
          <mxGeometry x="520" y="550" width="50" height="40" as="geometry" />
        </mxCell>
        <mxCell id="P6nvroZMQSLAxfdBalFb-303" value=":" style="rounded=0;whiteSpace=wrap;html=1;points=[];fillColor=#9AC7BF;fillOpacity=20;" vertex="1" parent="1">
          <mxGeometry x="570" y="550" width="50" height="40" as="geometry" />
        </mxCell>
        <mxCell id="P6nvroZMQSLAxfdBalFb-304" value=";" style="rounded=0;whiteSpace=wrap;html=1;points=[];fillColor=#9AC7BF;fillOpacity=20;" vertex="1" parent="1">
          <mxGeometry x="620" y="550" width="50" height="40" as="geometry" />
        </mxCell>
        <mxCell id="P6nvroZMQSLAxfdBalFb-305" value="&amp;lt;" style="rounded=0;whiteSpace=wrap;html=1;points=[];fillColor=#9AC7BF;fillOpacity=20;" vertex="1" parent="1">
          <mxGeometry x="670" y="550" width="50" height="40" as="geometry" />
        </mxCell>
        <mxCell id="P6nvroZMQSLAxfdBalFb-306" value="=" style="rounded=0;whiteSpace=wrap;html=1;points=[];fillColor=#9AC7BF;fillOpacity=20;" vertex="1" parent="1">
          <mxGeometry x="720" y="550" width="50" height="40" as="geometry" />
        </mxCell>
        <mxCell id="P6nvroZMQSLAxfdBalFb-307" value="&amp;gt;" style="rounded=0;whiteSpace=wrap;html=1;points=[];fillColor=#9AC7BF;fillOpacity=20;" vertex="1" parent="1">
          <mxGeometry x="770" y="550" width="50" height="40" as="geometry" />
        </mxCell>
        <mxCell id="P6nvroZMQSLAxfdBalFb-308" value="?" style="rounded=0;whiteSpace=wrap;html=1;points=[];fillColor=#9AC7BF;fillOpacity=20;" vertex="1" parent="1">
          <mxGeometry x="820" y="550" width="50" height="40" as="geometry" />
        </mxCell>
        <mxCell id="P6nvroZMQSLAxfdBalFb-309" value="@" style="rounded=0;whiteSpace=wrap;html=1;points=[];fillColor=#9AC7BF;fillOpacity=20;" vertex="1" parent="1">
          <mxGeometry x="70" y="590" width="50" height="40" as="geometry" />
        </mxCell>
        <mxCell id="P6nvroZMQSLAxfdBalFb-310" value="A" style="rounded=0;whiteSpace=wrap;html=1;points=[];fillColor=none;fillOpacity=20;" vertex="1" parent="1">
          <mxGeometry x="120" y="590" width="50" height="40" as="geometry" />
        </mxCell>
        <mxCell id="P6nvroZMQSLAxfdBalFb-311" value="B" style="rounded=0;whiteSpace=wrap;html=1;points=[];fillColor=none;fillOpacity=20;" vertex="1" parent="1">
          <mxGeometry x="170" y="590" width="50" height="40" as="geometry" />
        </mxCell>
        <mxCell id="P6nvroZMQSLAxfdBalFb-312" value="C" style="rounded=0;whiteSpace=wrap;html=1;points=[];fillColor=none;fillOpacity=20;" vertex="1" parent="1">
          <mxGeometry x="220" y="590" width="50" height="40" as="geometry" />
        </mxCell>
        <mxCell id="P6nvroZMQSLAxfdBalFb-313" value="D" style="rounded=0;whiteSpace=wrap;html=1;points=[];fillColor=none;fillOpacity=20;" vertex="1" parent="1">
          <mxGeometry x="270" y="590" width="50" height="40" as="geometry" />
        </mxCell>
        <mxCell id="P6nvroZMQSLAxfdBalFb-314" value="E" style="rounded=0;whiteSpace=wrap;html=1;points=[];fillColor=none;fillOpacity=20;" vertex="1" parent="1">
          <mxGeometry x="320" y="590" width="50" height="40" as="geometry" />
        </mxCell>
        <mxCell id="P6nvroZMQSLAxfdBalFb-315" value="F" style="rounded=0;whiteSpace=wrap;html=1;points=[];fillColor=none;fillOpacity=20;" vertex="1" parent="1">
          <mxGeometry x="370" y="590" width="50" height="40" as="geometry" />
        </mxCell>
        <mxCell id="P6nvroZMQSLAxfdBalFb-316" value="G" style="rounded=0;whiteSpace=wrap;html=1;points=[];fillColor=none;fillOpacity=20;" vertex="1" parent="1">
          <mxGeometry x="420" y="590" width="50" height="40" as="geometry" />
        </mxCell>
        <mxCell id="P6nvroZMQSLAxfdBalFb-317" value="H" style="rounded=0;whiteSpace=wrap;html=1;points=[];fillColor=none;fillOpacity=20;" vertex="1" parent="1">
          <mxGeometry x="470" y="590" width="50" height="40" as="geometry" />
        </mxCell>
        <mxCell id="P6nvroZMQSLAxfdBalFb-318" value="I" style="rounded=0;whiteSpace=wrap;html=1;points=[];fillColor=none;fillOpacity=20;" vertex="1" parent="1">
          <mxGeometry x="520" y="590" width="50" height="40" as="geometry" />
        </mxCell>
        <mxCell id="P6nvroZMQSLAxfdBalFb-319" value="J" style="rounded=0;whiteSpace=wrap;html=1;points=[];fillColor=none;fillOpacity=20;" vertex="1" parent="1">
          <mxGeometry x="570" y="590" width="50" height="40" as="geometry" />
        </mxCell>
        <mxCell id="P6nvroZMQSLAxfdBalFb-320" value="K" style="rounded=0;whiteSpace=wrap;html=1;points=[];fillColor=none;fillOpacity=20;" vertex="1" parent="1">
          <mxGeometry x="620" y="590" width="50" height="40" as="geometry" />
        </mxCell>
        <mxCell id="P6nvroZMQSLAxfdBalFb-321" value="L" style="rounded=0;whiteSpace=wrap;html=1;points=[];fillColor=none;fillOpacity=20;" vertex="1" parent="1">
          <mxGeometry x="670" y="590" width="50" height="40" as="geometry" />
        </mxCell>
        <mxCell id="P6nvroZMQSLAxfdBalFb-322" value="M" style="rounded=0;whiteSpace=wrap;html=1;points=[];fillColor=none;fillOpacity=20;" vertex="1" parent="1">
          <mxGeometry x="720" y="590" width="50" height="40" as="geometry" />
        </mxCell>
        <mxCell id="P6nvroZMQSLAxfdBalFb-323" value="N" style="rounded=0;whiteSpace=wrap;html=1;points=[];fillColor=none;fillOpacity=20;" vertex="1" parent="1">
          <mxGeometry x="770" y="590" width="50" height="40" as="geometry" />
        </mxCell>
        <mxCell id="P6nvroZMQSLAxfdBalFb-324" value="O" style="rounded=0;whiteSpace=wrap;html=1;points=[];fillColor=none;fillOpacity=20;" vertex="1" parent="1">
          <mxGeometry x="820" y="590" width="50" height="40" as="geometry" />
        </mxCell>
        <mxCell id="P6nvroZMQSLAxfdBalFb-325" value="P" style="rounded=0;whiteSpace=wrap;html=1;points=[];fillColor=none;fillOpacity=20;" vertex="1" parent="1">
          <mxGeometry x="70" y="630" width="50" height="40" as="geometry" />
        </mxCell>
        <mxCell id="P6nvroZMQSLAxfdBalFb-326" value="Q" style="rounded=0;whiteSpace=wrap;html=1;points=[];fillColor=none;fillOpacity=20;" vertex="1" parent="1">
          <mxGeometry x="120" y="630" width="50" height="40" as="geometry" />
        </mxCell>
        <mxCell id="P6nvroZMQSLAxfdBalFb-327" value="R" style="rounded=0;whiteSpace=wrap;html=1;points=[];fillColor=none;fillOpacity=20;" vertex="1" parent="1">
          <mxGeometry x="170" y="630" width="50" height="40" as="geometry" />
        </mxCell>
        <mxCell id="P6nvroZMQSLAxfdBalFb-328" value="S" style="rounded=0;whiteSpace=wrap;html=1;points=[];fillColor=none;fillOpacity=20;" vertex="1" parent="1">
          <mxGeometry x="220" y="630" width="50" height="40" as="geometry" />
        </mxCell>
        <mxCell id="P6nvroZMQSLAxfdBalFb-329" value="T" style="rounded=0;whiteSpace=wrap;html=1;points=[];fillColor=none;fillOpacity=20;" vertex="1" parent="1">
          <mxGeometry x="270" y="630" width="50" height="40" as="geometry" />
        </mxCell>
        <mxCell id="P6nvroZMQSLAxfdBalFb-330" value="U" style="rounded=0;whiteSpace=wrap;html=1;points=[];fillColor=none;fillOpacity=20;" vertex="1" parent="1">
          <mxGeometry x="320" y="630" width="50" height="40" as="geometry" />
        </mxCell>
        <mxCell id="P6nvroZMQSLAxfdBalFb-331" value="V" style="rounded=0;whiteSpace=wrap;html=1;points=[];fillColor=none;fillOpacity=20;" vertex="1" parent="1">
          <mxGeometry x="370" y="630" width="50" height="40" as="geometry" />
        </mxCell>
        <mxCell id="P6nvroZMQSLAxfdBalFb-332" value="W" style="rounded=0;whiteSpace=wrap;html=1;points=[];fillColor=none;fillOpacity=20;" vertex="1" parent="1">
          <mxGeometry x="420" y="630" width="50" height="40" as="geometry" />
        </mxCell>
        <mxCell id="P6nvroZMQSLAxfdBalFb-333" value="X" style="rounded=0;whiteSpace=wrap;html=1;points=[];fillColor=none;fillOpacity=20;" vertex="1" parent="1">
          <mxGeometry x="470" y="630" width="50" height="40" as="geometry" />
        </mxCell>
        <mxCell id="P6nvroZMQSLAxfdBalFb-334" value="Y" style="rounded=0;whiteSpace=wrap;html=1;points=[];fillColor=none;fillOpacity=20;" vertex="1" parent="1">
          <mxGeometry x="520" y="630" width="50" height="40" as="geometry" />
        </mxCell>
        <mxCell id="P6nvroZMQSLAxfdBalFb-335" value="Z" style="rounded=0;whiteSpace=wrap;html=1;points=[];fillColor=none;fillOpacity=20;" vertex="1" parent="1">
          <mxGeometry x="570" y="630" width="50" height="40" as="geometry" />
        </mxCell>
        <mxCell id="P6nvroZMQSLAxfdBalFb-336" value="[" style="rounded=0;whiteSpace=wrap;html=1;points=[];fillColor=#9AC7BF;fillOpacity=20;" vertex="1" parent="1">
          <mxGeometry x="620" y="630" width="50" height="40" as="geometry" />
        </mxCell>
        <mxCell id="P6nvroZMQSLAxfdBalFb-337" value="\&lt;br&gt;\\" style="rounded=0;whiteSpace=wrap;html=1;points=[];fillColor=#9AC7BF;fillOpacity=20;" vertex="1" parent="1">
          <mxGeometry x="670" y="630" width="50" height="40" as="geometry" />
        </mxCell>
        <mxCell id="P6nvroZMQSLAxfdBalFb-338" value="]" style="rounded=0;whiteSpace=wrap;html=1;points=[];fillColor=#9AC7BF;fillOpacity=20;" vertex="1" parent="1">
          <mxGeometry x="720" y="630" width="50" height="40" as="geometry" />
        </mxCell>
        <mxCell id="P6nvroZMQSLAxfdBalFb-339" value="" style="rounded=0;whiteSpace=wrap;html=1;points=[];fillColor=#9AC7BF;fillOpacity=20;" vertex="1" parent="1">
          <mxGeometry x="770" y="630" width="50" height="40" as="geometry" />
        </mxCell>
        <mxCell id="P6nvroZMQSLAxfdBalFb-340" value="" style="rounded=0;whiteSpace=wrap;html=1;points=[];fillColor=#9AC7BF;fillOpacity=20;" vertex="1" parent="1">
          <mxGeometry x="820" y="630" width="50" height="40" as="geometry" />
        </mxCell>
        <mxCell id="P6nvroZMQSLAxfdBalFb-341" value="" style="rounded=0;whiteSpace=wrap;html=1;points=[];fillColor=none;fillOpacity=20;" vertex="1" parent="1">
          <mxGeometry x="70" y="670" width="50" height="40" as="geometry" />
        </mxCell>
        <mxCell id="P6nvroZMQSLAxfdBalFb-342" value="" style="rounded=0;whiteSpace=wrap;html=1;points=[];fillColor=none;fillOpacity=20;" vertex="1" parent="1">
          <mxGeometry x="120" y="670" width="50" height="40" as="geometry" />
        </mxCell>
        <mxCell id="P6nvroZMQSLAxfdBalFb-343" value="" style="rounded=0;whiteSpace=wrap;html=1;points=[];fillColor=none;fillOpacity=20;" vertex="1" parent="1">
          <mxGeometry x="170" y="670" width="50" height="40" as="geometry" />
        </mxCell>
        <mxCell id="P6nvroZMQSLAxfdBalFb-344" value="" style="rounded=0;whiteSpace=wrap;html=1;points=[];fillColor=none;fillOpacity=20;" vertex="1" parent="1">
          <mxGeometry x="220" y="670" width="50" height="40" as="geometry" />
        </mxCell>
        <mxCell id="P6nvroZMQSLAxfdBalFb-345" value="" style="rounded=0;whiteSpace=wrap;html=1;points=[];fillColor=none;fillOpacity=20;" vertex="1" parent="1">
          <mxGeometry x="270" y="670" width="50" height="40" as="geometry" />
        </mxCell>
        <mxCell id="P6nvroZMQSLAxfdBalFb-346" value="" style="rounded=0;whiteSpace=wrap;html=1;points=[];fillColor=none;fillOpacity=20;" vertex="1" parent="1">
          <mxGeometry x="320" y="670" width="50" height="40" as="geometry" />
        </mxCell>
        <mxCell id="P6nvroZMQSLAxfdBalFb-347" value="" style="rounded=0;whiteSpace=wrap;html=1;points=[];fillColor=none;fillOpacity=20;" vertex="1" parent="1">
          <mxGeometry x="370" y="670" width="50" height="40" as="geometry" />
        </mxCell>
        <mxCell id="P6nvroZMQSLAxfdBalFb-348" value="" style="rounded=0;whiteSpace=wrap;html=1;points=[];fillColor=none;fillOpacity=20;" vertex="1" parent="1">
          <mxGeometry x="420" y="670" width="50" height="40" as="geometry" />
        </mxCell>
        <mxCell id="P6nvroZMQSLAxfdBalFb-349" value="" style="rounded=0;whiteSpace=wrap;html=1;points=[];fillColor=none;fillOpacity=20;" vertex="1" parent="1">
          <mxGeometry x="470" y="670" width="50" height="40" as="geometry" />
        </mxCell>
        <mxCell id="P6nvroZMQSLAxfdBalFb-350" value="" style="rounded=0;whiteSpace=wrap;html=1;points=[];fillColor=none;fillOpacity=20;" vertex="1" parent="1">
          <mxGeometry x="520" y="670" width="50" height="40" as="geometry" />
        </mxCell>
        <mxCell id="P6nvroZMQSLAxfdBalFb-351" value="" style="rounded=0;whiteSpace=wrap;html=1;points=[];fillColor=none;fillOpacity=20;" vertex="1" parent="1">
          <mxGeometry x="570" y="670" width="50" height="40" as="geometry" />
        </mxCell>
        <mxCell id="P6nvroZMQSLAxfdBalFb-352" value="" style="rounded=0;whiteSpace=wrap;html=1;points=[];fillColor=none;fillOpacity=20;" vertex="1" parent="1">
          <mxGeometry x="620" y="670" width="50" height="40" as="geometry" />
        </mxCell>
        <mxCell id="P6nvroZMQSLAxfdBalFb-353" value="" style="rounded=0;whiteSpace=wrap;html=1;points=[];fillColor=none;fillOpacity=20;" vertex="1" parent="1">
          <mxGeometry x="670" y="670" width="50" height="40" as="geometry" />
        </mxCell>
        <mxCell id="P6nvroZMQSLAxfdBalFb-354" value="" style="rounded=0;whiteSpace=wrap;html=1;points=[];fillColor=none;fillOpacity=20;" vertex="1" parent="1">
          <mxGeometry x="720" y="670" width="50" height="40" as="geometry" />
        </mxCell>
        <mxCell id="P6nvroZMQSLAxfdBalFb-355" value="" style="rounded=0;whiteSpace=wrap;html=1;points=[];fillColor=none;fillOpacity=20;" vertex="1" parent="1">
          <mxGeometry x="770" y="670" width="50" height="40" as="geometry" />
        </mxCell>
        <mxCell id="P6nvroZMQSLAxfdBalFb-356" value="" style="rounded=0;whiteSpace=wrap;html=1;points=[];fillColor=none;fillOpacity=20;" vertex="1" parent="1">
          <mxGeometry x="820" y="670" width="50" height="40" as="geometry" />
        </mxCell>
        <mxCell id="P6nvroZMQSLAxfdBalFb-357" value="" style="rounded=0;whiteSpace=wrap;html=1;points=[];fillColor=none;fillOpacity=20;" vertex="1" parent="1">
          <mxGeometry x="70" y="710" width="50" height="40" as="geometry" />
        </mxCell>
        <mxCell id="P6nvroZMQSLAxfdBalFb-358" value="" style="rounded=0;whiteSpace=wrap;html=1;points=[];fillColor=none;fillOpacity=20;" vertex="1" parent="1">
          <mxGeometry x="120" y="710" width="50" height="40" as="geometry" />
        </mxCell>
        <mxCell id="P6nvroZMQSLAxfdBalFb-359" value="" style="rounded=0;whiteSpace=wrap;html=1;points=[];fillColor=none;fillOpacity=20;" vertex="1" parent="1">
          <mxGeometry x="170" y="710" width="50" height="40" as="geometry" />
        </mxCell>
        <mxCell id="P6nvroZMQSLAxfdBalFb-360" value="" style="rounded=0;whiteSpace=wrap;html=1;points=[];fillColor=none;fillOpacity=20;" vertex="1" parent="1">
          <mxGeometry x="220" y="710" width="50" height="40" as="geometry" />
        </mxCell>
        <mxCell id="P6nvroZMQSLAxfdBalFb-361" value="" style="rounded=0;whiteSpace=wrap;html=1;points=[];fillColor=none;fillOpacity=20;" vertex="1" parent="1">
          <mxGeometry x="270" y="710" width="50" height="40" as="geometry" />
        </mxCell>
        <mxCell id="P6nvroZMQSLAxfdBalFb-362" value="" style="rounded=0;whiteSpace=wrap;html=1;points=[];fillColor=none;fillOpacity=20;" vertex="1" parent="1">
          <mxGeometry x="320" y="710" width="50" height="40" as="geometry" />
        </mxCell>
        <mxCell id="P6nvroZMQSLAxfdBalFb-363" value="" style="rounded=0;whiteSpace=wrap;html=1;points=[];fillColor=none;fillOpacity=20;" vertex="1" parent="1">
          <mxGeometry x="370" y="710" width="50" height="40" as="geometry" />
        </mxCell>
        <mxCell id="P6nvroZMQSLAxfdBalFb-364" value="" style="rounded=0;whiteSpace=wrap;html=1;points=[];fillColor=none;fillOpacity=20;" vertex="1" parent="1">
          <mxGeometry x="420" y="710" width="50" height="40" as="geometry" />
        </mxCell>
        <mxCell id="P6nvroZMQSLAxfdBalFb-365" value="" style="rounded=0;whiteSpace=wrap;html=1;points=[];fillColor=none;fillOpacity=20;" vertex="1" parent="1">
          <mxGeometry x="470" y="710" width="50" height="40" as="geometry" />
        </mxCell>
        <mxCell id="P6nvroZMQSLAxfdBalFb-366" value="" style="rounded=0;whiteSpace=wrap;html=1;points=[];fillColor=none;fillOpacity=20;" vertex="1" parent="1">
          <mxGeometry x="520" y="710" width="50" height="40" as="geometry" />
        </mxCell>
        <mxCell id="P6nvroZMQSLAxfdBalFb-367" value="" style="rounded=0;whiteSpace=wrap;html=1;points=[];fillColor=none;fillOpacity=20;" vertex="1" parent="1">
          <mxGeometry x="570" y="710" width="50" height="40" as="geometry" />
        </mxCell>
        <mxCell id="P6nvroZMQSLAxfdBalFb-368" value="" style="rounded=0;whiteSpace=wrap;html=1;points=[];fillColor=none;fillOpacity=20;" vertex="1" parent="1">
          <mxGeometry x="620" y="710" width="50" height="40" as="geometry" />
        </mxCell>
        <mxCell id="P6nvroZMQSLAxfdBalFb-369" value="ACK" style="rounded=0;whiteSpace=wrap;html=1;points=[];fillColor=#9AC7BF;fillOpacity=20;" vertex="1" parent="1">
          <mxGeometry x="670" y="710" width="50" height="40" as="geometry" />
        </mxCell>
        <mxCell id="P6nvroZMQSLAxfdBalFb-370" value="" style="rounded=0;whiteSpace=wrap;html=1;points=[];fillColor=none;fillOpacity=20;" vertex="1" parent="1">
          <mxGeometry x="720" y="710" width="50" height="40" as="geometry" />
        </mxCell>
        <mxCell id="P6nvroZMQSLAxfdBalFb-371" value="ESC" style="rounded=0;whiteSpace=wrap;html=1;points=[];fillColor=#9AC7BF;fillOpacity=20;" vertex="1" parent="1">
          <mxGeometry x="770" y="710" width="50" height="40" as="geometry" />
        </mxCell>
        <mxCell id="P6nvroZMQSLAxfdBalFb-372" value="DEL" style="rounded=0;whiteSpace=wrap;html=1;points=[];fillColor=#EA6B66;fillOpacity=20;" vertex="1" parent="1">
          <mxGeometry x="820" y="710" width="50" height="40" as="geometry" />
        </mxCell>
        <mxCell id="P6nvroZMQSLAxfdBalFb-373" value="000&lt;br&gt;0x00" style="text;strokeColor=none;align=center;fillColor=none;html=1;verticalAlign=middle;whiteSpace=wrap;rounded=0;" vertex="1" parent="1">
          <mxGeometry x="20" y="435" width="50" height="30" as="geometry" />
        </mxCell>
        <mxCell id="P6nvroZMQSLAxfdBalFb-374" value="020&lt;br&gt;0x10" style="text;strokeColor=none;align=center;fillColor=none;html=1;verticalAlign=middle;whiteSpace=wrap;rounded=0;" vertex="1" parent="1">
          <mxGeometry x="20" y="475" width="50" height="30" as="geometry" />
        </mxCell>
        <mxCell id="P6nvroZMQSLAxfdBalFb-375" value="040&lt;br&gt;0x20" style="text;strokeColor=none;align=center;fillColor=none;html=1;verticalAlign=middle;whiteSpace=wrap;rounded=0;" vertex="1" parent="1">
          <mxGeometry x="20" y="515" width="50" height="30" as="geometry" />
        </mxCell>
        <mxCell id="P6nvroZMQSLAxfdBalFb-376" value="060&lt;br&gt;0x30" style="text;strokeColor=none;align=center;fillColor=none;html=1;verticalAlign=middle;whiteSpace=wrap;rounded=0;" vertex="1" parent="1">
          <mxGeometry x="20" y="555" width="50" height="30" as="geometry" />
        </mxCell>
        <mxCell id="P6nvroZMQSLAxfdBalFb-377" value="080&lt;br&gt;0x40" style="text;strokeColor=none;align=center;fillColor=none;html=1;verticalAlign=middle;whiteSpace=wrap;rounded=0;" vertex="1" parent="1">
          <mxGeometry x="20" y="595" width="50" height="30" as="geometry" />
        </mxCell>
        <mxCell id="P6nvroZMQSLAxfdBalFb-378" value="0120&lt;br&gt;0x50" style="text;strokeColor=none;align=center;fillColor=none;html=1;verticalAlign=middle;whiteSpace=wrap;rounded=0;" vertex="1" parent="1">
          <mxGeometry x="20" y="635" width="50" height="30" as="geometry" />
        </mxCell>
        <mxCell id="P6nvroZMQSLAxfdBalFb-379" value="0140&lt;br&gt;0x60" style="text;strokeColor=none;align=center;fillColor=none;html=1;verticalAlign=middle;whiteSpace=wrap;rounded=0;" vertex="1" parent="1">
          <mxGeometry x="20" y="675" width="50" height="30" as="geometry" />
        </mxCell>
        <mxCell id="P6nvroZMQSLAxfdBalFb-380" value="0160&lt;br&gt;0x70" style="text;strokeColor=none;align=center;fillColor=none;html=1;verticalAlign=middle;whiteSpace=wrap;rounded=0;" vertex="1" parent="1">
          <mxGeometry x="20" y="715" width="50" height="30" as="geometry" />
        </mxCell>
        <mxCell id="P6nvroZMQSLAxfdBalFb-381" value="000&lt;br&gt;0x00" style="text;strokeColor=none;align=center;fillColor=none;html=1;verticalAlign=middle;whiteSpace=wrap;rounded=0;" vertex="1" parent="1">
          <mxGeometry x="71" y="397" width="50" height="30" as="geometry" />
        </mxCell>
        <mxCell id="P6nvroZMQSLAxfdBalFb-382" value="001&lt;br&gt;0x01" style="text;strokeColor=none;align=center;fillColor=none;html=1;verticalAlign=middle;whiteSpace=wrap;rounded=0;" vertex="1" parent="1">
          <mxGeometry x="121" y="397" width="50" height="30" as="geometry" />
        </mxCell>
        <mxCell id="P6nvroZMQSLAxfdBalFb-383" value="002&lt;br&gt;0x02" style="text;strokeColor=none;align=center;fillColor=none;html=1;verticalAlign=middle;whiteSpace=wrap;rounded=0;" vertex="1" parent="1">
          <mxGeometry x="170" y="397" width="50" height="30" as="geometry" />
        </mxCell>
        <mxCell id="P6nvroZMQSLAxfdBalFb-384" value="003&lt;br&gt;0x03" style="text;strokeColor=none;align=center;fillColor=none;html=1;verticalAlign=middle;whiteSpace=wrap;rounded=0;" vertex="1" parent="1">
          <mxGeometry x="220" y="397" width="50" height="30" as="geometry" />
        </mxCell>
        <mxCell id="P6nvroZMQSLAxfdBalFb-385" value="004&lt;br&gt;0x04" style="text;strokeColor=none;align=center;fillColor=none;html=1;verticalAlign=middle;whiteSpace=wrap;rounded=0;" vertex="1" parent="1">
          <mxGeometry x="270" y="397" width="50" height="30" as="geometry" />
        </mxCell>
        <mxCell id="P6nvroZMQSLAxfdBalFb-386" value="005&lt;br&gt;0x05" style="text;strokeColor=none;align=center;fillColor=none;html=1;verticalAlign=middle;whiteSpace=wrap;rounded=0;" vertex="1" parent="1">
          <mxGeometry x="320" y="397" width="50" height="30" as="geometry" />
        </mxCell>
        <mxCell id="P6nvroZMQSLAxfdBalFb-387" value="006&lt;br&gt;0x06" style="text;strokeColor=none;align=center;fillColor=none;html=1;verticalAlign=middle;whiteSpace=wrap;rounded=0;" vertex="1" parent="1">
          <mxGeometry x="369" y="397" width="50" height="30" as="geometry" />
        </mxCell>
        <mxCell id="P6nvroZMQSLAxfdBalFb-388" value="007&lt;br&gt;0x07" style="text;strokeColor=none;align=center;fillColor=none;html=1;verticalAlign=middle;whiteSpace=wrap;rounded=0;" vertex="1" parent="1">
          <mxGeometry x="419" y="397" width="50" height="30" as="geometry" />
        </mxCell>
        <mxCell id="P6nvroZMQSLAxfdBalFb-389" value="010&lt;br&gt;0x08" style="text;strokeColor=none;align=center;fillColor=none;html=1;verticalAlign=middle;whiteSpace=wrap;rounded=0;" vertex="1" parent="1">
          <mxGeometry x="472" y="397" width="50" height="30" as="geometry" />
        </mxCell>
        <mxCell id="P6nvroZMQSLAxfdBalFb-390" value="011&lt;br&gt;0x09" style="text;strokeColor=none;align=center;fillColor=none;html=1;verticalAlign=middle;whiteSpace=wrap;rounded=0;" vertex="1" parent="1">
          <mxGeometry x="522" y="397" width="50" height="30" as="geometry" />
        </mxCell>
        <mxCell id="P6nvroZMQSLAxfdBalFb-391" value="012&lt;br&gt;0x0A" style="text;strokeColor=none;align=center;fillColor=none;html=1;verticalAlign=middle;whiteSpace=wrap;rounded=0;" vertex="1" parent="1">
          <mxGeometry x="571" y="397" width="50" height="30" as="geometry" />
        </mxCell>
        <mxCell id="P6nvroZMQSLAxfdBalFb-392" value="013&lt;br&gt;0x0B" style="text;strokeColor=none;align=center;fillColor=none;html=1;verticalAlign=middle;whiteSpace=wrap;rounded=0;" vertex="1" parent="1">
          <mxGeometry x="621" y="397" width="50" height="30" as="geometry" />
        </mxCell>
        <mxCell id="P6nvroZMQSLAxfdBalFb-393" value="014&lt;br&gt;0x0C" style="text;strokeColor=none;align=center;fillColor=none;html=1;verticalAlign=middle;whiteSpace=wrap;rounded=0;" vertex="1" parent="1">
          <mxGeometry x="671" y="397" width="50" height="30" as="geometry" />
        </mxCell>
        <mxCell id="P6nvroZMQSLAxfdBalFb-394" value="015&lt;br&gt;0x0D" style="text;strokeColor=none;align=center;fillColor=none;html=1;verticalAlign=middle;whiteSpace=wrap;rounded=0;" vertex="1" parent="1">
          <mxGeometry x="721" y="397" width="50" height="30" as="geometry" />
        </mxCell>
        <mxCell id="P6nvroZMQSLAxfdBalFb-395" value="016&lt;br&gt;0x0E" style="text;strokeColor=none;align=center;fillColor=none;html=1;verticalAlign=middle;whiteSpace=wrap;rounded=0;" vertex="1" parent="1">
          <mxGeometry x="770" y="397" width="50" height="30" as="geometry" />
        </mxCell>
        <mxCell id="P6nvroZMQSLAxfdBalFb-396" value="017&lt;br&gt;0x0F" style="text;strokeColor=none;align=center;fillColor=none;html=1;verticalAlign=middle;whiteSpace=wrap;rounded=0;" vertex="1" parent="1">
          <mxGeometry x="820" y="397" width="50" height="30" as="geometry" />
        </mxCell>
        <mxCell id="P6nvroZMQSLAxfdBalFb-398" value="" style="endArrow=blockThin;html=1;rounded=0;endFill=1;" edge="1" parent="1">
          <mxGeometry width="50" height="50" relative="1" as="geometry">
            <mxPoint x="794.86" y="657" as="sourcePoint" />
            <mxPoint x="794.86" y="643" as="targetPoint" />
          </mxGeometry>
        </mxCell>
        <mxCell id="P6nvroZMQSLAxfdBalFb-399" value="" style="endArrow=blockThin;html=1;rounded=0;endFill=1;" edge="1" parent="1">
          <mxGeometry width="50" height="50" relative="1" as="geometry">
            <mxPoint x="852" y="649.86" as="sourcePoint" />
            <mxPoint x="838" y="649.86" as="targetPoint" />
          </mxGeometry>
        </mxCell>
        <mxCell id="P6nvroZMQSLAxfdBalFb-410" value="" style="group" vertex="1" connectable="0" parent="1">
          <mxGeometry x="120" y="670" width="100" height="40" as="geometry" />
        </mxCell>
        <mxCell id="P6nvroZMQSLAxfdBalFb-400" value="" style="endArrow=none;html=1;rounded=0;entryX=1.008;entryY=-0.01;entryDx=0;entryDy=0;entryPerimeter=0;exitX=0;exitY=0.98;exitDx=0;exitDy=0;exitPerimeter=0;" edge="1" parent="P6nvroZMQSLAxfdBalFb-410" source="P6nvroZMQSLAxfdBalFb-341" target="P6nvroZMQSLAxfdBalFb-341">
          <mxGeometry width="50" height="50" relative="1" as="geometry">
            <mxPoint x="130" y="40" as="sourcePoint" />
            <mxPoint x="180" y="-10" as="targetPoint" />
          </mxGeometry>
        </mxCell>
        <mxCell id="P6nvroZMQSLAxfdBalFb-401" value="" style="endArrow=none;html=1;rounded=0;entryX=0;entryY=0.99;entryDx=0;entryDy=0;entryPerimeter=0;exitX=-0.016;exitY=-0.02;exitDx=0;exitDy=0;exitPerimeter=0;" edge="1" parent="P6nvroZMQSLAxfdBalFb-410" source="P6nvroZMQSLAxfdBalFb-341" target="P6nvroZMQSLAxfdBalFb-342">
          <mxGeometry width="50" height="50" relative="1" as="geometry">
            <mxPoint x="-40" y="49" as="sourcePoint" />
            <mxPoint x="10" y="10" as="targetPoint" />
          </mxGeometry>
        </mxCell>
        <mxCell id="P6nvroZMQSLAxfdBalFb-402" value="" style="endArrow=none;html=1;rounded=0;entryX=1.008;entryY=-0.01;entryDx=0;entryDy=0;entryPerimeter=0;exitX=0;exitY=0;exitDx=0;exitDy=0;exitPerimeter=0;" edge="1" parent="P6nvroZMQSLAxfdBalFb-410" source="P6nvroZMQSLAxfdBalFb-358">
          <mxGeometry width="50" height="50" relative="1" as="geometry">
            <mxPoint y="39" as="sourcePoint" />
            <mxPoint x="50" as="targetPoint" />
          </mxGeometry>
        </mxCell>
        <mxCell id="P6nvroZMQSLAxfdBalFb-403" value="" style="endArrow=none;html=1;rounded=0;entryX=0;entryY=0.99;entryDx=0;entryDy=0;entryPerimeter=0;" edge="1" parent="P6nvroZMQSLAxfdBalFb-410">
          <mxGeometry width="50" height="50" relative="1" as="geometry">
            <mxPoint as="sourcePoint" />
            <mxPoint x="50" y="40" as="targetPoint" />
          </mxGeometry>
        </mxCell>
        <mxCell id="P6nvroZMQSLAxfdBalFb-406" value="" style="endArrow=none;html=1;rounded=0;entryX=1.008;entryY=-0.01;entryDx=0;entryDy=0;entryPerimeter=0;exitX=0;exitY=0;exitDx=0;exitDy=0;exitPerimeter=0;" edge="1" parent="P6nvroZMQSLAxfdBalFb-410">
          <mxGeometry width="50" height="50" relative="1" as="geometry">
            <mxPoint x="50" y="40" as="sourcePoint" />
            <mxPoint x="100" as="targetPoint" />
          </mxGeometry>
        </mxCell>
        <mxCell id="P6nvroZMQSLAxfdBalFb-407" value="" style="endArrow=none;html=1;rounded=0;entryX=0;entryY=0.99;entryDx=0;entryDy=0;entryPerimeter=0;" edge="1" parent="P6nvroZMQSLAxfdBalFb-410">
          <mxGeometry width="50" height="50" relative="1" as="geometry">
            <mxPoint x="50" as="sourcePoint" />
            <mxPoint x="100" y="40" as="targetPoint" />
          </mxGeometry>
        </mxCell>
        <mxCell id="P6nvroZMQSLAxfdBalFb-425" value="" style="endArrow=none;html=1;rounded=0;entryX=1;entryY=0.01;entryDx=0;entryDy=0;entryPerimeter=0;" edge="1" parent="1" target="P6nvroZMQSLAxfdBalFb-344">
          <mxGeometry width="50" height="50" relative="1" as="geometry">
            <mxPoint x="220" y="710" as="sourcePoint" />
            <mxPoint x="300" y="660" as="targetPoint" />
          </mxGeometry>
        </mxCell>
        <mxCell id="P6nvroZMQSLAxfdBalFb-426" value="" style="endArrow=none;html=1;rounded=0;exitX=-0.003;exitY=0.004;exitDx=0;exitDy=0;exitPerimeter=0;entryX=1;entryY=0.99;entryDx=0;entryDy=0;entryPerimeter=0;" edge="1" parent="1" source="P6nvroZMQSLAxfdBalFb-344" target="P6nvroZMQSLAxfdBalFb-344">
          <mxGeometry width="50" height="50" relative="1" as="geometry">
            <mxPoint x="250" y="710" as="sourcePoint" />
            <mxPoint x="300" y="660" as="targetPoint" />
          </mxGeometry>
        </mxCell>
        <mxCell id="P6nvroZMQSLAxfdBalFb-429" value="" style="endArrow=none;html=1;rounded=0;exitX=0.004;exitY=0.997;exitDx=0;exitDy=0;exitPerimeter=0;entryX=1;entryY=0.01;entryDx=0;entryDy=0;entryPerimeter=0;" edge="1" parent="1" source="P6nvroZMQSLAxfdBalFb-345">
          <mxGeometry width="50" height="50" relative="1" as="geometry">
            <mxPoint x="270" y="711" as="sourcePoint" />
            <mxPoint x="320" y="670" as="targetPoint" />
          </mxGeometry>
        </mxCell>
        <mxCell id="P6nvroZMQSLAxfdBalFb-430" value="" style="endArrow=none;html=1;rounded=0;exitX=-0.002;exitY=-0.006;exitDx=0;exitDy=0;exitPerimeter=0;entryX=1;entryY=0.99;entryDx=0;entryDy=0;entryPerimeter=0;" edge="1" parent="1" source="P6nvroZMQSLAxfdBalFb-345">
          <mxGeometry width="50" height="50" relative="1" as="geometry">
            <mxPoint x="271" y="670" as="sourcePoint" />
            <mxPoint x="320" y="710" as="targetPoint" />
          </mxGeometry>
        </mxCell>
        <mxCell id="P6nvroZMQSLAxfdBalFb-431" value="" style="endArrow=none;html=1;rounded=0;entryX=1;entryY=0.01;entryDx=0;entryDy=0;entryPerimeter=0;" edge="1" parent="1">
          <mxGeometry width="50" height="50" relative="1" as="geometry">
            <mxPoint x="320" y="710" as="sourcePoint" />
            <mxPoint x="370" y="670" as="targetPoint" />
          </mxGeometry>
        </mxCell>
        <mxCell id="P6nvroZMQSLAxfdBalFb-432" value="" style="endArrow=none;html=1;rounded=0;exitX=-0.003;exitY=0.004;exitDx=0;exitDy=0;exitPerimeter=0;entryX=1;entryY=0.99;entryDx=0;entryDy=0;entryPerimeter=0;" edge="1" parent="1">
          <mxGeometry width="50" height="50" relative="1" as="geometry">
            <mxPoint x="320" y="670" as="sourcePoint" />
            <mxPoint x="370" y="710" as="targetPoint" />
          </mxGeometry>
        </mxCell>
        <mxCell id="P6nvroZMQSLAxfdBalFb-433" value="" style="endArrow=none;html=1;rounded=0;exitX=0.004;exitY=0.997;exitDx=0;exitDy=0;exitPerimeter=0;entryX=1;entryY=0.01;entryDx=0;entryDy=0;entryPerimeter=0;" edge="1" parent="1">
          <mxGeometry width="50" height="50" relative="1" as="geometry">
            <mxPoint x="370" y="710" as="sourcePoint" />
            <mxPoint x="420" y="670" as="targetPoint" />
          </mxGeometry>
        </mxCell>
        <mxCell id="P6nvroZMQSLAxfdBalFb-434" value="" style="endArrow=none;html=1;rounded=0;exitX=-0.002;exitY=-0.006;exitDx=0;exitDy=0;exitPerimeter=0;entryX=1;entryY=0.99;entryDx=0;entryDy=0;entryPerimeter=0;" edge="1" parent="1">
          <mxGeometry width="50" height="50" relative="1" as="geometry">
            <mxPoint x="370" y="670" as="sourcePoint" />
            <mxPoint x="420" y="710" as="targetPoint" />
          </mxGeometry>
        </mxCell>
        <mxCell id="P6nvroZMQSLAxfdBalFb-435" value="" style="endArrow=none;html=1;rounded=0;entryX=1;entryY=0.01;entryDx=0;entryDy=0;entryPerimeter=0;" edge="1" parent="1">
          <mxGeometry width="50" height="50" relative="1" as="geometry">
            <mxPoint x="220" y="750" as="sourcePoint" />
            <mxPoint x="270" y="710" as="targetPoint" />
          </mxGeometry>
        </mxCell>
        <mxCell id="P6nvroZMQSLAxfdBalFb-436" value="" style="endArrow=none;html=1;rounded=0;exitX=-0.003;exitY=0.004;exitDx=0;exitDy=0;exitPerimeter=0;entryX=1;entryY=0.99;entryDx=0;entryDy=0;entryPerimeter=0;" edge="1" parent="1">
          <mxGeometry width="50" height="50" relative="1" as="geometry">
            <mxPoint x="220" y="710" as="sourcePoint" />
            <mxPoint x="270" y="750" as="targetPoint" />
          </mxGeometry>
        </mxCell>
        <mxCell id="P6nvroZMQSLAxfdBalFb-437" value="" style="endArrow=none;html=1;rounded=0;exitX=0.004;exitY=0.997;exitDx=0;exitDy=0;exitPerimeter=0;entryX=1;entryY=0.01;entryDx=0;entryDy=0;entryPerimeter=0;" edge="1" parent="1">
          <mxGeometry width="50" height="50" relative="1" as="geometry">
            <mxPoint x="270" y="750" as="sourcePoint" />
            <mxPoint x="320" y="710" as="targetPoint" />
          </mxGeometry>
        </mxCell>
        <mxCell id="P6nvroZMQSLAxfdBalFb-438" value="" style="endArrow=none;html=1;rounded=0;exitX=-0.002;exitY=-0.006;exitDx=0;exitDy=0;exitPerimeter=0;entryX=1;entryY=0.99;entryDx=0;entryDy=0;entryPerimeter=0;" edge="1" parent="1">
          <mxGeometry width="50" height="50" relative="1" as="geometry">
            <mxPoint x="270" y="710" as="sourcePoint" />
            <mxPoint x="320" y="750" as="targetPoint" />
          </mxGeometry>
        </mxCell>
        <mxCell id="P6nvroZMQSLAxfdBalFb-439" value="" style="endArrow=none;html=1;rounded=0;entryX=1;entryY=0.01;entryDx=0;entryDy=0;entryPerimeter=0;" edge="1" parent="1">
          <mxGeometry width="50" height="50" relative="1" as="geometry">
            <mxPoint x="320" y="750" as="sourcePoint" />
            <mxPoint x="370" y="710" as="targetPoint" />
          </mxGeometry>
        </mxCell>
        <mxCell id="P6nvroZMQSLAxfdBalFb-440" value="" style="endArrow=none;html=1;rounded=0;exitX=-0.003;exitY=0.004;exitDx=0;exitDy=0;exitPerimeter=0;entryX=1;entryY=0.99;entryDx=0;entryDy=0;entryPerimeter=0;" edge="1" parent="1">
          <mxGeometry width="50" height="50" relative="1" as="geometry">
            <mxPoint x="320" y="710" as="sourcePoint" />
            <mxPoint x="370" y="750" as="targetPoint" />
          </mxGeometry>
        </mxCell>
        <mxCell id="P6nvroZMQSLAxfdBalFb-441" value="" style="endArrow=none;html=1;rounded=0;exitX=0.004;exitY=0.997;exitDx=0;exitDy=0;exitPerimeter=0;entryX=1;entryY=0.01;entryDx=0;entryDy=0;entryPerimeter=0;" edge="1" parent="1">
          <mxGeometry width="50" height="50" relative="1" as="geometry">
            <mxPoint x="370" y="750" as="sourcePoint" />
            <mxPoint x="420" y="710" as="targetPoint" />
          </mxGeometry>
        </mxCell>
        <mxCell id="P6nvroZMQSLAxfdBalFb-442" value="" style="endArrow=none;html=1;rounded=0;exitX=-0.002;exitY=-0.006;exitDx=0;exitDy=0;exitPerimeter=0;entryX=1;entryY=0.99;entryDx=0;entryDy=0;entryPerimeter=0;" edge="1" parent="1">
          <mxGeometry width="50" height="50" relative="1" as="geometry">
            <mxPoint x="370" y="710" as="sourcePoint" />
            <mxPoint x="420" y="750" as="targetPoint" />
          </mxGeometry>
        </mxCell>
        <mxCell id="P6nvroZMQSLAxfdBalFb-445" value="" style="endArrow=none;html=1;rounded=0;exitX=0.004;exitY=0.997;exitDx=0;exitDy=0;exitPerimeter=0;entryX=1;entryY=0.01;entryDx=0;entryDy=0;entryPerimeter=0;" edge="1" parent="1">
          <mxGeometry width="50" height="50" relative="1" as="geometry">
            <mxPoint x="70" y="750" as="sourcePoint" />
            <mxPoint x="120" y="710" as="targetPoint" />
          </mxGeometry>
        </mxCell>
        <mxCell id="P6nvroZMQSLAxfdBalFb-446" value="" style="endArrow=none;html=1;rounded=0;exitX=-0.002;exitY=-0.006;exitDx=0;exitDy=0;exitPerimeter=0;entryX=1;entryY=0.99;entryDx=0;entryDy=0;entryPerimeter=0;" edge="1" parent="1">
          <mxGeometry width="50" height="50" relative="1" as="geometry">
            <mxPoint x="70" y="710" as="sourcePoint" />
            <mxPoint x="120" y="750" as="targetPoint" />
          </mxGeometry>
        </mxCell>
        <mxCell id="P6nvroZMQSLAxfdBalFb-447" value="" style="endArrow=none;html=1;rounded=0;entryX=1;entryY=0.01;entryDx=0;entryDy=0;entryPerimeter=0;" edge="1" parent="1">
          <mxGeometry width="50" height="50" relative="1" as="geometry">
            <mxPoint x="120" y="750" as="sourcePoint" />
            <mxPoint x="170" y="710" as="targetPoint" />
          </mxGeometry>
        </mxCell>
        <mxCell id="P6nvroZMQSLAxfdBalFb-448" value="" style="endArrow=none;html=1;rounded=0;exitX=-0.003;exitY=0.004;exitDx=0;exitDy=0;exitPerimeter=0;entryX=1;entryY=0.99;entryDx=0;entryDy=0;entryPerimeter=0;" edge="1" parent="1">
          <mxGeometry width="50" height="50" relative="1" as="geometry">
            <mxPoint x="120" y="710" as="sourcePoint" />
            <mxPoint x="170" y="750" as="targetPoint" />
          </mxGeometry>
        </mxCell>
        <mxCell id="P6nvroZMQSLAxfdBalFb-449" value="" style="endArrow=none;html=1;rounded=0;exitX=0.004;exitY=0.997;exitDx=0;exitDy=0;exitPerimeter=0;entryX=1;entryY=0.01;entryDx=0;entryDy=0;entryPerimeter=0;" edge="1" parent="1">
          <mxGeometry width="50" height="50" relative="1" as="geometry">
            <mxPoint x="170" y="750" as="sourcePoint" />
            <mxPoint x="220" y="710" as="targetPoint" />
          </mxGeometry>
        </mxCell>
        <mxCell id="P6nvroZMQSLAxfdBalFb-450" value="" style="endArrow=none;html=1;rounded=0;exitX=-0.002;exitY=-0.006;exitDx=0;exitDy=0;exitPerimeter=0;entryX=1;entryY=0.99;entryDx=0;entryDy=0;entryPerimeter=0;" edge="1" parent="1">
          <mxGeometry width="50" height="50" relative="1" as="geometry">
            <mxPoint x="170" y="710" as="sourcePoint" />
            <mxPoint x="220" y="750" as="targetPoint" />
          </mxGeometry>
        </mxCell>
        <mxCell id="P6nvroZMQSLAxfdBalFb-451" value="" style="endArrow=none;html=1;rounded=0;entryX=1;entryY=0.01;entryDx=0;entryDy=0;entryPerimeter=0;" edge="1" parent="1">
          <mxGeometry width="50" height="50" relative="1" as="geometry">
            <mxPoint x="420" y="750" as="sourcePoint" />
            <mxPoint x="470" y="710" as="targetPoint" />
          </mxGeometry>
        </mxCell>
        <mxCell id="P6nvroZMQSLAxfdBalFb-452" value="" style="endArrow=none;html=1;rounded=0;exitX=-0.003;exitY=0.004;exitDx=0;exitDy=0;exitPerimeter=0;entryX=1;entryY=0.99;entryDx=0;entryDy=0;entryPerimeter=0;" edge="1" parent="1">
          <mxGeometry width="50" height="50" relative="1" as="geometry">
            <mxPoint x="420" y="710" as="sourcePoint" />
            <mxPoint x="470" y="750" as="targetPoint" />
          </mxGeometry>
        </mxCell>
        <mxCell id="P6nvroZMQSLAxfdBalFb-453" value="" style="endArrow=none;html=1;rounded=0;exitX=0.004;exitY=0.997;exitDx=0;exitDy=0;exitPerimeter=0;entryX=1;entryY=0.01;entryDx=0;entryDy=0;entryPerimeter=0;" edge="1" parent="1">
          <mxGeometry width="50" height="50" relative="1" as="geometry">
            <mxPoint x="470" y="750" as="sourcePoint" />
            <mxPoint x="520" y="710" as="targetPoint" />
          </mxGeometry>
        </mxCell>
        <mxCell id="P6nvroZMQSLAxfdBalFb-454" value="" style="endArrow=none;html=1;rounded=0;exitX=-0.002;exitY=-0.006;exitDx=0;exitDy=0;exitPerimeter=0;entryX=1;entryY=0.99;entryDx=0;entryDy=0;entryPerimeter=0;" edge="1" parent="1">
          <mxGeometry width="50" height="50" relative="1" as="geometry">
            <mxPoint x="470" y="710" as="sourcePoint" />
            <mxPoint x="520" y="750" as="targetPoint" />
          </mxGeometry>
        </mxCell>
        <mxCell id="P6nvroZMQSLAxfdBalFb-455" value="" style="endArrow=none;html=1;rounded=0;entryX=1;entryY=0.01;entryDx=0;entryDy=0;entryPerimeter=0;" edge="1" parent="1">
          <mxGeometry width="50" height="50" relative="1" as="geometry">
            <mxPoint x="520" y="750" as="sourcePoint" />
            <mxPoint x="570" y="710" as="targetPoint" />
          </mxGeometry>
        </mxCell>
        <mxCell id="P6nvroZMQSLAxfdBalFb-456" value="" style="endArrow=none;html=1;rounded=0;exitX=-0.003;exitY=0.004;exitDx=0;exitDy=0;exitPerimeter=0;entryX=1;entryY=0.99;entryDx=0;entryDy=0;entryPerimeter=0;" edge="1" parent="1">
          <mxGeometry width="50" height="50" relative="1" as="geometry">
            <mxPoint x="520" y="710" as="sourcePoint" />
            <mxPoint x="570" y="750" as="targetPoint" />
          </mxGeometry>
        </mxCell>
        <mxCell id="P6nvroZMQSLAxfdBalFb-457" value="" style="endArrow=none;html=1;rounded=0;exitX=0.004;exitY=0.997;exitDx=0;exitDy=0;exitPerimeter=0;entryX=1;entryY=0.01;entryDx=0;entryDy=0;entryPerimeter=0;" edge="1" parent="1">
          <mxGeometry width="50" height="50" relative="1" as="geometry">
            <mxPoint x="570" y="750" as="sourcePoint" />
            <mxPoint x="620" y="710" as="targetPoint" />
          </mxGeometry>
        </mxCell>
        <mxCell id="P6nvroZMQSLAxfdBalFb-458" value="" style="endArrow=none;html=1;rounded=0;exitX=-0.002;exitY=-0.006;exitDx=0;exitDy=0;exitPerimeter=0;entryX=1;entryY=0.99;entryDx=0;entryDy=0;entryPerimeter=0;" edge="1" parent="1">
          <mxGeometry width="50" height="50" relative="1" as="geometry">
            <mxPoint x="570" y="710" as="sourcePoint" />
            <mxPoint x="620" y="750" as="targetPoint" />
          </mxGeometry>
        </mxCell>
        <mxCell id="P6nvroZMQSLAxfdBalFb-459" value="" style="endArrow=none;html=1;rounded=0;entryX=1;entryY=0.01;entryDx=0;entryDy=0;entryPerimeter=0;" edge="1" parent="1">
          <mxGeometry width="50" height="50" relative="1" as="geometry">
            <mxPoint x="420" y="710" as="sourcePoint" />
            <mxPoint x="470" y="670" as="targetPoint" />
          </mxGeometry>
        </mxCell>
        <mxCell id="P6nvroZMQSLAxfdBalFb-460" value="" style="endArrow=none;html=1;rounded=0;exitX=-0.003;exitY=0.004;exitDx=0;exitDy=0;exitPerimeter=0;entryX=1;entryY=0.99;entryDx=0;entryDy=0;entryPerimeter=0;" edge="1" parent="1">
          <mxGeometry width="50" height="50" relative="1" as="geometry">
            <mxPoint x="420" y="670" as="sourcePoint" />
            <mxPoint x="470" y="710" as="targetPoint" />
          </mxGeometry>
        </mxCell>
        <mxCell id="P6nvroZMQSLAxfdBalFb-461" value="" style="endArrow=none;html=1;rounded=0;exitX=0.004;exitY=0.997;exitDx=0;exitDy=0;exitPerimeter=0;entryX=1;entryY=0.01;entryDx=0;entryDy=0;entryPerimeter=0;" edge="1" parent="1">
          <mxGeometry width="50" height="50" relative="1" as="geometry">
            <mxPoint x="470" y="710" as="sourcePoint" />
            <mxPoint x="520" y="670" as="targetPoint" />
          </mxGeometry>
        </mxCell>
        <mxCell id="P6nvroZMQSLAxfdBalFb-462" value="" style="endArrow=none;html=1;rounded=0;exitX=-0.002;exitY=-0.006;exitDx=0;exitDy=0;exitPerimeter=0;entryX=1;entryY=0.99;entryDx=0;entryDy=0;entryPerimeter=0;" edge="1" parent="1">
          <mxGeometry width="50" height="50" relative="1" as="geometry">
            <mxPoint x="470" y="670" as="sourcePoint" />
            <mxPoint x="520" y="710" as="targetPoint" />
          </mxGeometry>
        </mxCell>
        <mxCell id="P6nvroZMQSLAxfdBalFb-463" value="" style="endArrow=none;html=1;rounded=0;entryX=1;entryY=0.01;entryDx=0;entryDy=0;entryPerimeter=0;" edge="1" parent="1">
          <mxGeometry width="50" height="50" relative="1" as="geometry">
            <mxPoint x="520" y="710" as="sourcePoint" />
            <mxPoint x="570" y="670" as="targetPoint" />
          </mxGeometry>
        </mxCell>
        <mxCell id="P6nvroZMQSLAxfdBalFb-464" value="" style="endArrow=none;html=1;rounded=0;exitX=-0.003;exitY=0.004;exitDx=0;exitDy=0;exitPerimeter=0;entryX=1;entryY=0.99;entryDx=0;entryDy=0;entryPerimeter=0;" edge="1" parent="1">
          <mxGeometry width="50" height="50" relative="1" as="geometry">
            <mxPoint x="520" y="670" as="sourcePoint" />
            <mxPoint x="570" y="710" as="targetPoint" />
          </mxGeometry>
        </mxCell>
        <mxCell id="P6nvroZMQSLAxfdBalFb-465" value="" style="endArrow=none;html=1;rounded=0;exitX=0.004;exitY=0.997;exitDx=0;exitDy=0;exitPerimeter=0;entryX=1;entryY=0.01;entryDx=0;entryDy=0;entryPerimeter=0;" edge="1" parent="1">
          <mxGeometry width="50" height="50" relative="1" as="geometry">
            <mxPoint x="570" y="710" as="sourcePoint" />
            <mxPoint x="620" y="670" as="targetPoint" />
          </mxGeometry>
        </mxCell>
        <mxCell id="P6nvroZMQSLAxfdBalFb-466" value="" style="endArrow=none;html=1;rounded=0;exitX=-0.002;exitY=-0.006;exitDx=0;exitDy=0;exitPerimeter=0;entryX=1;entryY=0.99;entryDx=0;entryDy=0;entryPerimeter=0;" edge="1" parent="1">
          <mxGeometry width="50" height="50" relative="1" as="geometry">
            <mxPoint x="570" y="670" as="sourcePoint" />
            <mxPoint x="620" y="710" as="targetPoint" />
          </mxGeometry>
        </mxCell>
        <mxCell id="P6nvroZMQSLAxfdBalFb-467" value="" style="endArrow=none;html=1;rounded=0;entryX=1;entryY=0.01;entryDx=0;entryDy=0;entryPerimeter=0;" edge="1" parent="1">
          <mxGeometry width="50" height="50" relative="1" as="geometry">
            <mxPoint x="620" y="710" as="sourcePoint" />
            <mxPoint x="670" y="670" as="targetPoint" />
          </mxGeometry>
        </mxCell>
        <mxCell id="P6nvroZMQSLAxfdBalFb-468" value="" style="endArrow=none;html=1;rounded=0;exitX=-0.003;exitY=0.004;exitDx=0;exitDy=0;exitPerimeter=0;entryX=1;entryY=0.99;entryDx=0;entryDy=0;entryPerimeter=0;" edge="1" parent="1">
          <mxGeometry width="50" height="50" relative="1" as="geometry">
            <mxPoint x="620" y="670" as="sourcePoint" />
            <mxPoint x="670" y="710" as="targetPoint" />
          </mxGeometry>
        </mxCell>
        <mxCell id="P6nvroZMQSLAxfdBalFb-469" value="" style="endArrow=none;html=1;rounded=0;exitX=0.004;exitY=0.997;exitDx=0;exitDy=0;exitPerimeter=0;entryX=1;entryY=0.01;entryDx=0;entryDy=0;entryPerimeter=0;" edge="1" parent="1">
          <mxGeometry width="50" height="50" relative="1" as="geometry">
            <mxPoint x="670" y="710" as="sourcePoint" />
            <mxPoint x="720" y="670" as="targetPoint" />
          </mxGeometry>
        </mxCell>
        <mxCell id="P6nvroZMQSLAxfdBalFb-470" value="" style="endArrow=none;html=1;rounded=0;exitX=-0.002;exitY=-0.006;exitDx=0;exitDy=0;exitPerimeter=0;entryX=1;entryY=0.99;entryDx=0;entryDy=0;entryPerimeter=0;" edge="1" parent="1">
          <mxGeometry width="50" height="50" relative="1" as="geometry">
            <mxPoint x="670" y="670" as="sourcePoint" />
            <mxPoint x="720" y="710" as="targetPoint" />
          </mxGeometry>
        </mxCell>
        <mxCell id="P6nvroZMQSLAxfdBalFb-471" value="" style="endArrow=none;html=1;rounded=0;entryX=1;entryY=0.01;entryDx=0;entryDy=0;entryPerimeter=0;" edge="1" parent="1">
          <mxGeometry width="50" height="50" relative="1" as="geometry">
            <mxPoint x="720" y="710" as="sourcePoint" />
            <mxPoint x="770" y="670" as="targetPoint" />
          </mxGeometry>
        </mxCell>
        <mxCell id="P6nvroZMQSLAxfdBalFb-472" value="" style="endArrow=none;html=1;rounded=0;exitX=-0.003;exitY=0.004;exitDx=0;exitDy=0;exitPerimeter=0;entryX=1;entryY=0.99;entryDx=0;entryDy=0;entryPerimeter=0;" edge="1" parent="1">
          <mxGeometry width="50" height="50" relative="1" as="geometry">
            <mxPoint x="720" y="670" as="sourcePoint" />
            <mxPoint x="770" y="710" as="targetPoint" />
          </mxGeometry>
        </mxCell>
        <mxCell id="P6nvroZMQSLAxfdBalFb-473" value="" style="endArrow=none;html=1;rounded=0;exitX=0.004;exitY=0.997;exitDx=0;exitDy=0;exitPerimeter=0;entryX=1;entryY=0.01;entryDx=0;entryDy=0;entryPerimeter=0;" edge="1" parent="1">
          <mxGeometry width="50" height="50" relative="1" as="geometry">
            <mxPoint x="770" y="710" as="sourcePoint" />
            <mxPoint x="820" y="670" as="targetPoint" />
          </mxGeometry>
        </mxCell>
        <mxCell id="P6nvroZMQSLAxfdBalFb-474" value="" style="endArrow=none;html=1;rounded=0;exitX=-0.002;exitY=-0.006;exitDx=0;exitDy=0;exitPerimeter=0;entryX=1;entryY=0.99;entryDx=0;entryDy=0;entryPerimeter=0;" edge="1" parent="1">
          <mxGeometry width="50" height="50" relative="1" as="geometry">
            <mxPoint x="770" y="670" as="sourcePoint" />
            <mxPoint x="820" y="710" as="targetPoint" />
          </mxGeometry>
        </mxCell>
        <mxCell id="P6nvroZMQSLAxfdBalFb-475" value="" style="endArrow=none;html=1;rounded=0;exitX=0.004;exitY=0.997;exitDx=0;exitDy=0;exitPerimeter=0;entryX=1;entryY=0.01;entryDx=0;entryDy=0;entryPerimeter=0;" edge="1" parent="1">
          <mxGeometry width="50" height="50" relative="1" as="geometry">
            <mxPoint x="820" y="710" as="sourcePoint" />
            <mxPoint x="870" y="670" as="targetPoint" />
          </mxGeometry>
        </mxCell>
        <mxCell id="P6nvroZMQSLAxfdBalFb-476" value="" style="endArrow=none;html=1;rounded=0;exitX=-0.002;exitY=-0.006;exitDx=0;exitDy=0;exitPerimeter=0;entryX=1;entryY=0.99;entryDx=0;entryDy=0;entryPerimeter=0;" edge="1" parent="1">
          <mxGeometry width="50" height="50" relative="1" as="geometry">
            <mxPoint x="820" y="670" as="sourcePoint" />
            <mxPoint x="870" y="710" as="targetPoint" />
          </mxGeometry>
        </mxCell>
        <mxCell id="P6nvroZMQSLAxfdBalFb-477" value="" style="endArrow=none;html=1;rounded=0;exitX=0.004;exitY=0.997;exitDx=0;exitDy=0;exitPerimeter=0;entryX=1;entryY=0.01;entryDx=0;entryDy=0;entryPerimeter=0;" edge="1" parent="1">
          <mxGeometry width="50" height="50" relative="1" as="geometry">
            <mxPoint x="720" y="750" as="sourcePoint" />
            <mxPoint x="770" y="710" as="targetPoint" />
          </mxGeometry>
        </mxCell>
        <mxCell id="P6nvroZMQSLAxfdBalFb-478" value="" style="endArrow=none;html=1;rounded=0;exitX=-0.002;exitY=-0.006;exitDx=0;exitDy=0;exitPerimeter=0;entryX=1;entryY=0.99;entryDx=0;entryDy=0;entryPerimeter=0;" edge="1" parent="1">
          <mxGeometry width="50" height="50" relative="1" as="geometry">
            <mxPoint x="720" y="710" as="sourcePoint" />
            <mxPoint x="770" y="750" as="targetPoint" />
          </mxGeometry>
        </mxCell>
        <mxCell id="P6nvroZMQSLAxfdBalFb-479" value="" style="endArrow=none;html=1;rounded=0;exitX=0.004;exitY=0.997;exitDx=0;exitDy=0;exitPerimeter=0;entryX=1;entryY=0.01;entryDx=0;entryDy=0;entryPerimeter=0;" edge="1" parent="1">
          <mxGeometry width="50" height="50" relative="1" as="geometry">
            <mxPoint x="620" y="750" as="sourcePoint" />
            <mxPoint x="670" y="710" as="targetPoint" />
          </mxGeometry>
        </mxCell>
        <mxCell id="P6nvroZMQSLAxfdBalFb-480" value="" style="endArrow=none;html=1;rounded=0;exitX=-0.002;exitY=-0.006;exitDx=0;exitDy=0;exitPerimeter=0;entryX=1;entryY=0.99;entryDx=0;entryDy=0;entryPerimeter=0;" edge="1" parent="1">
          <mxGeometry width="50" height="50" relative="1" as="geometry">
            <mxPoint x="620" y="710" as="sourcePoint" />
            <mxPoint x="670" y="750" as="targetPoint" />
          </mxGeometry>
        </mxCell>
      </root>
    </mxGraphModel>
  </diagram>
</mxfile>
